<svg width="47"
    height="50"
    viewBox="0 0 47 50"
    fill="none"
    xmlns="http://www.w3.org/2000/svg">
    <g filter="url(#filter0_d_3113_73708)">
        <rect
            id="colored-1"
            x="4"
            y="2"
            width="39"
            height="36"
            rx="8"
            fill="#4DBF50" />
        <path
            id="colored-2"
            fill-rule="evenodd"
            clip-rule="evenodd"
            d="M23.4981 32C30.1453 32 35.5 26.6618 35.5 20.0119C35.5 13.362 30.1453 8 23.4981 8C16.8537 8 11.5 13.362 11.5 20.0119C11.5 26.6618 16.8537 32 23.4981 32V32Z"
            fill="#4DBF50" />
        <path
            d="M20.1486 25H24.32C26.4629 25 27.7343 23.5857 27.7343 22.0429C27.7343 20.8571 27.0915 19.8714 25.7486 19.4429V19.4143C26.4343 18.9571 26.8058 18.2571 26.8058 17.4571C26.8058 16.2143 25.7629 15 23.72 15H20.1486V25ZM21.9629 19.0429V16.5286H23.4343C24.3343 16.5286 24.9486 17.0143 24.9486 17.7857C24.9486 18.5571 24.3343 19.0429 23.4343 19.0429H21.9629ZM21.9629 23.4714V20.5H23.9486C25.1772 20.5 25.8058 21.1714 25.8058 21.9857C25.8058 22.8 25.1772 23.4714 23.9486 23.4714H21.9629Z"
            fill="white" />
        <path
            id="colored-3"
            d="M21.6709 42.593C22.7492 43.4225 24.2508 43.4225 25.3291 42.593L43 29H4L21.6709 42.593Z"
            fill="#4DBF50" />
    </g>
    <defs>
        <filter
            id="filter0_d_3113_73708"
            x="0"
            y="0"
            width="47"
            height="50"
            filterUnits="userSpaceOnUse"
            color-interpolation-filters="sRGB">
            <feFlood
                flood-opacity="0"
                result="BackgroundImageFix" />
            <feColorMatrix
                in="SourceAlpha"
                type="matrix"
                values="0 0 0 0 0 0 0 0 0 0 0 0 0 0 0 0 0 0 127 0"
                result="hardAlpha" />
            <feOffset dy="2" />
            <feGaussianBlur stdDeviation="2" />
            <feColorMatrix
                type="matrix"
                values="0 0 0 0 0.054902 0 0 0 0 0.2 0 0 0 0 0.407843 0 0 0 0.08 0" />
            <feBlend
                mode="normal"
                in2="BackgroundImageFix"
                result="effect1_dropShadow_3113_73708" />
            <feBlend
                mode="normal"
                in="SourceGraphic"
                in2="effect1_dropShadow_3113_73708"
                result="shape" />
        </filter>
    </defs>
</svg>
