<svg width="47"
    height="50"
    viewBox="0 0 47 50"
    fill="none"
    xmlns="http://www.w3.org/2000/svg">
    <g filter="url(#filter0_d_8343_131532)">
        <rect
            id="colored-1"
            x="4"
            y="2"
            width="39"
            height="36"
            rx="8"
            fill="#D92128" />
        <path
            id="colored-2"
            fill-rule="evenodd"
            clip-rule="evenodd"
            d="M23.4981 32C30.1453 32 35.5 26.6618 35.5 20.0119C35.5 13.362 30.1453 8 23.4981 8C16.8537 8 11.5 13.362 11.5 20.0119C11.5 26.6618 16.8537 32 23.4981 32Z"
            fill="#D92128" />
        <path
            d="M22.0571 21.3286L23.4428 17.5429H23.4714L24.8571 21.3286H22.0571ZM20.7428 25L21.5143 22.8571H25.4L26.1714 25H28.2L24.3286 15H22.6714L18.8 25H20.7428Z"
            fill="white" />
        <path
            id="colored-3"
            d="M21.6709 42.593C22.7492 43.4225 24.2508 43.4225 25.3291 42.593L43 29H4L21.6709 42.593Z"
            fill="#D92128" />
    </g>
    <defs>
        <filter
            id="filter0_d_8343_131532"
            x="0"
            y="0"
            width="47"
            height="50"
            filterUnits="userSpaceOnUse"
            color-interpolation-filters="sRGB">
            <feFlood
                flood-opacity="0"
                result="BackgroundImageFix" />
            <feColorMatrix
                in="SourceAlpha"
                type="matrix"
                values="0 0 0 0 0 0 0 0 0 0 0 0 0 0 0 0 0 0 127 0"
                result="hardAlpha" />
            <feOffset dy="2" />
            <feGaussianBlur stdDeviation="2" />
            <feColorMatrix
                type="matrix"
                values="0 0 0 0 0.054902 0 0 0 0 0.2 0 0 0 0 0.407843 0 0 0 0.08 0" />
            <feBlend
                mode="normal"
                in2="BackgroundImageFix"
                result="effect1_dropShadow_8343_131532" />
            <feBlend
                mode="normal"
                in="SourceGraphic"
                in2="effect1_dropShadow_8343_131532"
                result="shape" />
        </filter>
    </defs>
</svg>
